<!-- save this as assets/hackerrank_card.svg -->
<svg xmlns="http://www.w3.org/2000/svg" width="800" height="230" viewBox="0 0 800 230">
  <defs>
    <linearGradient id="g1" x1="0" x2="1" y1="0" y2="1">
      <stop offset="0" stop-color="#e0f7ff"/>
      <stop offset="1" stop-color="#fbe7ff"/>
    </linearGradient>
    <linearGradient id="g2" x1="0" x2="1">
      <stop offset="0" stop-color="#5aa9ff"/>
      <stop offset="1" stop-color="#c77bff"/>
    </linearGradient>
    <filter id="shadow" x="-50%" y="-50%" width="200%" height="200%">
      <feDropShadow dx="0" dy="6" stdDeviation="12" flood-color="#0b1220" flood-opacity="0.18"/>
    </filter>
  </defs>

  <!-- background card -->
  <rect rx="18" ry="18" width="780" height="200" x="10" y="15" fill="url(#g1)" stroke="url(#g2)" stroke-width="3" filter="url(#shadow)"/>

  <!-- left badge circle -->
  <g transform="translate(50,55)">
    <circle cx="70" cy="50" r="50" fill="#ffffff" opacity="0.95" />
    <!-- simple neural/net icon (stylized) -->
    <g transform="translate(40,30)" fill="none" stroke="#3b82f6" stroke-width="4" stroke-linecap="round" stroke-linejoin="round">
      <circle cx="0" cy="-10" r="6" fill="#60a5fa" stroke="none"/>
      <circle cx="0" cy="40" r="6" fill="#60a5fa" stroke="none"/>
      <circle cx="-40" cy="20" r="6" fill="#60a5fa" stroke="none"/>
      <circle cx="40" cy="20" r="6" fill="#60a5fa" stroke="none"/>
      <path d="M0 -4 L 0 34" />
      <path d="M0 34 L -34 20" />
      <path d="M0 34 L 34 20" />
    </g>
  </g>

  <!-- username and id -->
  <g transform="translate(160,50)">
    <text x="0" y="18" font-family="Segoe UI, Roboto, Helvetica, Arial" font-size="34" fill="#2b2b2b" font-weight="700">Vishal0666</text>
    <text x="0" y="46" font-family="Segoe UI, Roboto, Helvetica, Arial" font-size="14" fill="#4b5563">HackerRank • Public profile</text>
  </g>

  <!-- right badge box -->
  <g transform="translate(520,58)">
    <rect x="0" y="0" width="230" height="80" rx="12" fill="white" opacity="0.95" stroke="#e9eaf0"/>
    <text x="18" y="26" font-family="Segoe UI, Roboto, Helvetica, Arial" font-size="13" fill="#6b7280">Top Badge</text>
    <text x="18" y="52" font-family="Segoe UI, Roboto, Helvetica, Arial" font-size="20" fill="#0f172a" font-weight="700">SQL — 3★</text>

    <!-- 3 small star icons -->
    <g transform="translate(150,36)" fill="#fbbf24">
      <polygon points="6,0 8,4 13,5 9,8 10,13 6,10 2,13 3,8 -1,5 4,4"/>
      <use href="#star" x="20" />
      <use href="#star" x="40" />
    </g>
  </g>

  <!-- small HackerRank label bottom-left -->
  <g transform="translate(170,125)">
    <rect x="-8" y="10" width="120" height="36" rx="8" fill="url(#g2)"/>
    <text x="8" y="34" font-family="Segoe UI, Roboto, Helvetica, Arial" font-size="14" fill="white" font-weight="700">HackerRank</text>
  </g>

  <!-- decorative gradient border -->
  <rect x="18" y="23" width="764" height="184" rx="14" fill="none" stroke="url(#g2)" stroke-width="1.2" opacity="0.6"/>

  <!-- subtle footer text -->
  <text x="34" y="208" font-family="Segoe UI, Roboto, Helvetica, Arial" font-size="11" fill="#6b7280">Auto-generated badge card — update README to embed this image</text>
</svg>
