<svg xmlns="http://www.w3.org/2000/svg" width="800" height="200" viewBox="0 0 800 200">
  <defs>
    <linearGradient id="g1" x1="0" x2="1" y1="0" y2="1">
      <stop offset="0" stop-color="#e0f7ff"/>
      <stop offset="1" stop-color="#fbe7ff"/>
    </linearGradient>
    <linearGradient id="g2" x1="0" x2="1">
      <stop offset="0" stop-color="#5aa9ff"/>
      <stop offset="1" stop-color="#c77bff"/>
    </linearGradient>
    <filter id="shadow" x="-50%" y="-50%" width="200%" height="200%">
      <feDropShadow dx="0" dy="5" stdDeviation="10" flood-color="#0b1220" flood-opacity="0.18"/>
    </filter>
  </defs>

  <!-- Background card -->
  <rect x="10" y="10" width="780" height="180" rx="18" fill="url(#g1)" stroke="url(#g2)" stroke-width="3" filter="url(#shadow)"/>

  <!-- Circle + Centered Logo -->
  <g transform="translate(40,35)">
    <circle cx="70" cy="65" r="55" fill="white" opacity="0.95"/>

    <!-- FIXED: perfectly centered logo -->
    <g transform="translate(70,65) scale(1) translate(-0,-10)" 
       fill="none" stroke="#3b82f6" stroke-width="4" stroke-linecap="round" stroke-linejoin="round">

      <circle cx="0" cy="-10" r="6" fill="#60a5fa" stroke="none"/>
      <circle cx="0" cy="40" r="6" fill="#60a5fa" stroke="none"/>
      <circle cx="-40" cy="20" r="6" fill="#60a5fa" stroke="none"/>
      <circle cx="40" cy="20" r="6" fill="#60a5fa" stroke="none"/>

      <path d="M0 -4 L 0 34"/>
      <path d="M0 34 L -34 20"/>
      <path d="M0 34 L 34 20"/>
    </g>
  </g>

  <!-- Username + subtitle moved down -->
  <g transform="translate(170,55)">
    <text x="0" y="0" font-family="Segoe UI, Roboto, Helvetica, Arial" font-size="32" fill="#1f2937" font-weight="700">
      Vishal0666
    </text>

    <text x="0" y="30" font-family="Segoe UI" font-size="14" fill="#6b7280">
      HackerRank • Public profile
    </text>

    <rect x="0" y="45" width="110" height="30" rx="8" fill="url(#g2)"/>
    <text x="18" y="65" font-family="Segoe UI" font-size="14" fill="white" font-weight="600">HackerRank</text>
  </g>

  <!-- Badge Box -->
  <g transform="translate(520,45)">
    <rect x="0" y="0" width="230" height="80" rx="12" fill="white" opacity="0.95" stroke="#e9eaf0"/>
    <text x="18" y="26" font-family="Segoe UI" font-size="13" fill="#6b7280">Top Badge</text>
    <text x="18" y="52" font-family="Segoe UI" font-size="20" fill="#0f172a" font-weight="700">SQL — 3★</text>
  </g>

</svg>
