<svg width="820" height="300" viewBox="0 0 820 300" fill="none" xmlns="http://www.w3.org/2000/svg">

  <defs>
    <linearGradient id="cardbg" x1="0" y1="0" x2="1" y2="1">
      <stop offset="0%" stop-color="#dff3ff"/>
      <stop offset="100%" stop-color="#f8dbff"/>
    </linearGradient>

    <linearGradient id="greenbar" x1="0" x2="1">
      <stop offset="0%" stop-color="#3ee6b0" />
      <stop offset="100%" stop-color="#5cd4ff" />
    </linearGradient>

    <linearGradient id="yellowbar" x1="0" x2="1">
      <stop offset="0%" stop-color="#ffd15c" />
      <stop offset="100%" stop-color="#ffac4d" />
    </linearGradient>

    <linearGradient id="redbar" x1="0" x2="1">
      <stop offset="0%" stop-color="#ff6a6a" />
      <stop offset="100%" stop-color="#ff8a8a" />
    </linearGradient>
  </defs>

  <rect x="10" y="10" width="800" height="280" rx="22" fill="url(#cardbg)" stroke="#b87dff" stroke-width="3"/>

  <!-- Logo -->
  <g transform="translate(40,40)">
    <rect width="90" height="90" rx="45" fill="white" opacity="0.95"/>
    <g transform="translate(45,45)">
      <circle cx="0" cy="-25" r="6" fill="#5a8bff"/>
      <circle cx="0" cy="25" r="6" fill="#5a8bff"/>
      <circle cx="-30" cy="5" r="6" fill="#5a8bff"/>
      <circle cx="30" cy="5" r="6" fill="#5a8bff"/>
      <path d="M0 -19 V19" stroke="#3a6ffc" stroke-width="4" stroke-linecap="round"/>
      <path d="M0 19 L -26 5" stroke="#3a6ffc" stroke-width="4" stroke-linecap="round"/>
      <path d="M0 19 L 26 5" stroke="#3a6ffc" stroke-width="4" stroke-linecap="round"/>
    </g>
  </g>

  <!-- Username + Rank -->
  <text x="150" y="70" fill="#3a3a3a" font-size="34" font-family="Segoe UI" font-weight="700">Vishal0666</text>

  <text x="150" y="100" fill="#7b7b7b" font-size="16" font-family="Segoe UI">
    Rank • 678629 • Hackos • 277
  </text>

  <!-- Badge -->
  <g transform="translate(520,40)">
    <rect width="240" height="90" rx="14" fill="white" opacity="0.95"/>
    <text x="16" y="28" fill="#6b7280" font-family="Segoe UI" font-size="14">Top Badge</text>
    <text x="16" y="58" fill="#141b26" font-family="Segoe UI" font-size="24" font-weight="700">SQL — 3★</text>
  </g>

  <!-- CIRCLE COUNT FIXED (30 / 57 with PROGRESS FILL) -->
  <g transform="translate(55,150)">
    <!-- Background circle -->
    <circle cx="70" cy="70" r="60" stroke="#f0f4ff" stroke-width="12" fill="none"/>

    <!-- Filled progress: 30/57 -->
    <circle cx="70" cy="70" r="60"
      stroke="#7b4dff"
      stroke-width="12"
      stroke-linecap="round"
      fill="none"
      transform="rotate(-90 70 70)"
      stroke-dasharray="189.47 360"
    />

    <text x="70" y="90" text-anchor="middle" font-size="28" fill="#7b4dff" font-family="Segoe UI" font-weight="700">
      30 / 57
    </text>
  </g>

  <!-- STATS BARS -->
  <g transform="translate(200,150)">
    
    <!-- EASY -->
    <text x="0" y="10" fill="#374151" font-size="20" font-family="Segoe UI" font-weight="600">Easy</text>
    <text x="300" y="10" fill="#374151" font-size="18" font-family="Segoe UI">29 / 40</text>
    <rect x="0" y="20" width="320" height="8" rx="4" fill="#eef5ff"/>
    <rect x="0" y="20" width="232" height="8" rx="4" fill="url(#greenbar)"/> <!-- 29/40 -->

    <!-- MEDIUM -->
    <text x="0" y="55" fill="#374151" font-size="20" font-family="Segoe UI" font-weight="600">Medium</text>
    <text x="300" y="55" fill="#374151" font-size="18" font-family="Segoe UI">1 / 15</text>
    <rect x="0" y="65" width="320" height="8" rx="4" fill="#eef5ff"/>
    <rect x="0" y="65" width="21" height="8" rx="4" fill="url(#yellowbar)"/> <!-- 1/15 -->

    <!-- HARD -->
    <text x="0" y="100" fill="#374151" font-size="20" font-family="Segoe UI" font-weight="600">Hard</text>
    <text x="300" y="100" fill="#374151" font-size="18" font-family="Segoe UI">0 / 2</text>
    <rect x="0" y="110" width="320" height="8" rx="4" fill="#eef5ff"/>
    <rect x="0" y="110" width="5" height="8" rx="4" fill="url(#redbar)"/> <!-- 0/2 -->

  </g>

</svg>
